<svg width="375" height="375" viewBox="0 0 375 375" xmlns="http://www.w3.org/2000/svg" xmlns:xlink="http://www.w3.org/1999/xlink">
    <path id="Path" fill="#333333" stroke="none" d="M 108.496094 207.566406 C 108.621094 208.195313 108.683594 208.84375 108.683594 209.511719 C 108.683594 209.96875 108.652344 210.417969 108.59375 210.863281 C 108.304688 213.058594 107.316406 215.03125 105.867188 216.554688 C 105.855469 216.566406 105.839844 216.578125 105.824219 216.585938 L 103.292969 218.027344 L 102.113281 218.699219 L 100.839844 219.425781 L 96.703125 221.777344 L 88.222656 226.605469 L 84.429688 228.765625 L 61.695313 241.703125 L 58.0625 243.769531 C 57.9375 243.839844 57.78125 243.746094 57.78125 243.601563 L 57.78125 236.542969 C 57.78125 236.472656 57.816406 236.410156 57.878906 236.375 L 61.695313 234.203125 L 84.429688 221.265625 L 88.222656 219.105469 L 90.113281 218.027344 L 91.808594 217.0625 L 96.703125 214.277344 L 102.015625 211.253906 C 103.378906 210.148438 103.378906 208.242188 102.015625 207.121094 L 97.027344 204.285156 C 96.96875 204.25 96.898438 204.25 96.839844 204.285156 L 88.484375 209.039063 L 88.484375 209.042969 L 88.21875 209.191406 L 87.988281 209.320313 L 84.429688 211.34375 L 81.394531 213.070313 L 61.976563 224.121094 C 61.847656 224.195313 61.695313 224.101563 61.695313 223.957031 L 61.695313 216.894531 C 61.695313 216.824219 61.730469 216.761719 61.792969 216.730469 L 74.808594 209.320313 L 81.394531 205.570313 L 84.429688 203.84375 L 88.21875 201.6875 L 90.050781 200.644531 C 90.179688 200.574219 90.179688 200.386719 90.050781 200.3125 L 88.21875 199.269531 L 84.429688 197.113281 L 83.417969 196.535156 L 61.691406 184.171875 L 57.777344 181.945313 L 57.726563 181.914063 L 57.390625 181.722656 L 50.335938 177.707031 C 50.277344 177.675781 50.207031 177.675781 50.148438 177.707031 L 44.234375 181.074219 C 42.367188 182.171875 43.378906 184.207031 44.234375 184.417969 L 48.445313 186.8125 L 54.617188 190.328125 L 57.777344 192.125 L 61.695313 194.355469 L 74.179688 201.460938 C 74.308594 201.53125 74.308594 201.71875 74.179688 201.792969 L 67.976563 205.324219 C 67.917969 205.355469 67.84375 205.355469 67.789063 205.324219 L 61.695313 201.855469 L 57.777344 199.625 L 46.113281 192.988281 L 44.136719 191.863281 L 41.855469 190.5625 L 39.929688 189.46875 L 39.929688 189.464844 C 38.828125 188.144531 38.054688 186.535156 37.734375 184.769531 C 37.632813 184.179688 37.574219 183.5625 37.574219 182.9375 C 37.574219 182.191406 37.65625 181.460938 37.808594 180.761719 C 38.242188 178.753906 39.265625 176.972656 40.679688 175.601563 L 40.683594 175.597656 L 42.882813 174.347656 L 43.367188 174.074219 C 43.492188 174 43.492188 173.816406 43.367188 173.742188 L 39.726563 171.667969 L 39.722656 171.667969 C 38.78125 170.453125 38.105469 169.023438 37.785156 167.457031 C 37.648438 166.789063 37.578125 166.101563 37.578125 165.390625 C 37.578125 164.597656 37.667969 163.828125 37.835938 163.089844 C 38.226563 161.398438 39.035156 159.867188 40.148438 158.613281 C 40.148438 158.613281 40.148438 158.613281 40.152344 158.613281 L 42.878906 157.058594 L 44.144531 156.339844 L 45.796875 155.398438 L 49.464844 153.308594 L 57.785156 148.574219 L 61.699219 146.34375 L 84.433594 133.40625 L 87.9375 131.414063 C 88.066406 131.339844 88.222656 131.433594 88.222656 131.578125 L 88.222656 138.640625 C 88.222656 138.710938 88.183594 138.773438 88.125 138.804688 L 84.429688 140.90625 L 61.695313 153.84375 L 57.78125 156.074219 L 56.054688 157.058594 L 54.535156 157.921875 L 49.464844 160.808594 L 44.238281 163.785156 C 42.753906 165.011719 43.886719 166.535156 44.238281 166.734375 L 50.152344 170.101563 C 50.210938 170.136719 50.28125 170.136719 50.339844 170.101563 L 57.769531 165.875 L 57.78125 165.867188 L 58.0625 165.707031 L 61.695313 163.640625 L 64.65625 161.957031 L 84.148438 150.863281 C 84.277344 150.789063 84.429688 150.882813 84.429688 151.027344 L 84.429688 158.089844 C 84.429688 158.160156 84.394531 158.222656 84.332031 158.253906 L 71.242188 165.707031 L 64.652344 169.457031 L 61.695313 171.140625 L 57.777344 173.371094 L 57.125 173.742188 C 56.996094 173.8125 56.996094 174 57.125 174.074219 L 57.777344 174.445313 L 61.695313 176.671875 L 63.980469 177.976563 L 84.429688 189.613281 L 88.21875 191.769531 L 88.472656 191.914063 L 90.007813 192.789063 L 96.839844 196.675781 C 96.898438 196.710938 96.96875 196.710938 97.027344 196.675781 L 102.015625 193.835938 C 102.871094 193.238281 103.25 191.710938 102.015625 190.722656 L 97.828125 188.339844 L 91.480469 184.726563 L 88.21875 182.871094 L 84.429688 180.714844 L 72.09375 173.695313 C 71.964844 173.621094 71.964844 173.433594 72.09375 173.359375 L 78.296875 169.828125 C 78.355469 169.796875 78.429688 169.796875 78.484375 169.828125 L 84.429688 173.214844 L 88.222656 175.371094 L 99.601563 181.847656 L 99.605469 181.851563 L 102.113281 183.277344 L 104.417969 184.589844 L 104.421875 184.589844 L 106.628906 185.847656 C 106.652344 185.863281 106.671875 185.882813 106.6875 185.902344 C 107.597656 187.132813 108.234375 188.574219 108.519531 190.140625 C 108.628906 190.738281 108.683594 191.347656 108.683594 191.972656 C 108.683594 192.796875 108.585938 193.597656 108.402344 194.359375 C 107.941406 196.289063 106.933594 198.003906 105.554688 199.332031 C 105.03125 199.832031 104.453125 200.28125 103.832031 200.660156 C 103.789063 200.691406 103.742188 200.71875 103.691406 200.746094 C 106.148438 202.191406 107.9375 204.65625 108.496094 207.566406 Z"/>
</svg>
